<!-- icon666.com - MILLIONS OF FREE VECTOR ICONS --><svg viewBox="0 0 32 32" xmlns="http://www.w3.org/2000/svg"><g id="_31_-_plus" data-name="31 - plus"><path d="m11 2h-3a3 3 0 0 0 -3 3v22a3 3 0 0 0 3 3h3a3 3 0 0 0 3-3v-22a3 3 0 0 0 -3-3zm1 25a1 1 0 0 1 -1 1h-3a1 1 0 0 1 -1-1v-22a1 1 0 0 1 1-1h3a1 1 0 0 1 1 1z" fill="#000000" style="fill: rgb(255, 255, 255);"></path><path d="m24 2h-3a3 3 0 0 0 -3 3v22a3 3 0 0 0 3 3h3a3 3 0 0 0 3-3v-22a3 3 0 0 0 -3-3zm1 25a1 1 0 0 1 -1 1h-3a1 1 0 0 1 -1-1v-22a1 1 0 0 1 1-1h3a1 1 0 0 1 1 1z" fill="#000000" style="fill: rgb(255, 255, 255);"></path></g></svg>