<!-- icon666.com - MILLIONS OF FREE VECTOR ICONS --><svg fill="none" viewBox="0 0 14 14" xmlns="http://www.w3.org/2000/svg" xmlns:xlink="http://www.w3.org/1999/xlink"><clipPath id="clip0_1002_139"><path d="m0 0h14v14h-14z"></path></clipPath><g clip-path="url(#clip0_1002_139)"><path clip-rule="evenodd" d="m5.91741 1.60856c1.26646-.25488 2.62546-.06745 3.83207.62918 2.63012 1.5185 3.53122 4.88161 2.01272 7.51172-1.5185 2.63014-4.88157 3.53124-7.51168 2.01274-2.61245-1.5083-3.51907-4.83651-2.04301-7.45863l.92886.55732c.26012.15607.58864.14009.83237-.04051.24373-.18059.35468-.49022.28111-.78451l-.55445-2.21779c-.10046-.40185-.50766-.64617-.90951-.54571l-2.217789.55445c-.294289.07357-.5152818.31718-.55992961.61722-.04464769.30004.09584261.59744.35595961.75351l.556749.33405c-1.907742 3.34291-.757548 7.6029 2.57964 9.5297 3.34755 1.9327 7.62808.7857 9.56078-2.5618 1.9327-3.34759.7857-7.62809-2.5618-9.560799-1.53475-.886074-3.26745-1.124795-4.87803-.800659-.40607.081724-.66901.47716-.58729.883238.08173.40607.47716.66901.88323.58728zm1.08259 1.14142c.41421 0 .75.33579.75.75v3.57536l2.13587 1.28152c.35523.21311.47033.67381.25723 1.02899-.21309.35519-.67379.47036-1.02897.25725l-2.5-1.5c-.22591-.13554-.36413-.37967-.36413-.64312v-4c0-.41421.33579-.75.75-.75z" fill="#000" fill-rule="evenodd"></path></g></svg>